<?xml version="1.0" encoding="utf-8"?>
<!-- Generator: Adobe Illustrator 27.0.1, SVG Export Plug-In . SVG Version: 6.00 Build 0)  -->
<svg version="1.1" id="Capa_1" xmlns="http://www.w3.org/2000/svg" xmlns:xlink="http://www.w3.org/1999/xlink" x="0px" y="0px"
	 viewBox="0 0 163.6 128.7" style="enable-background:new 0 0 163.6 128.7;" xml:space="preserve">
<style type="text/css">
	.st0{fill:#FFFFFF;}
	.st1{font-family:'PassionOne-Regular';}
	.st2{font-size:33.5028px;}
</style>
<g>
	<g>
		<text transform="matrix(1 0 0 1 15.2614 124.0765)" class="st0 st1 st2">Developer </text>
	</g>
	<g>
		<path class="st0" d="M30.1,91.6c-0.5,0-1-0.1-1.4-0.4c-8.2-4.8-13-12.6-13-20.8V58.7c0-2.1-1.4-4-3.8-5.2L1.5,48.3
			C0.6,47.8,0,46.8,0,45.8c0-1,0.6-2,1.5-2.5l10.4-5.2c2.4-1.2,3.8-3.2,3.8-5.2V21.2c0-8.2,4.9-16,13-20.8c1.3-0.8,3-0.3,3.8,1
			c0.8,1.3,0.3,3-1,3.8c-6.4,3.8-10.3,9.8-10.3,16v11.7c0,4.2-2.6,8.1-6.8,10.2l-5.5,2.8l5.5,2.8c4.2,2.1,6.8,6,6.8,10.2v11.7
			c0,6.3,3.8,12.3,10.3,16c1.3,0.8,1.8,2.5,1,3.8C32,91.1,31.1,91.6,30.1,91.6z"/>
		<path class="st0" d="M133.5,91.6c-0.9,0-1.9-0.5-2.4-1.4c-0.8-1.3-0.3-3,1-3.8c6.4-3.8,10.3-9.8,10.3-16V58.8
			c0-4.2,2.6-8.1,6.8-10.2l5.5-2.8l-5.5-2.8c-4.2-2.1-6.8-6-6.8-10.2V21.2c0-6.3-3.8-12.3-10.3-16c-1.3-0.8-1.8-2.5-1-3.8
			c0.8-1.3,2.5-1.8,3.8-1c8.2,4.8,13,12.6,13,20.8v11.7c0,2.1,1.4,4,3.8,5.2l10.4,5.2c0.9,0.5,1.5,1.4,1.5,2.5c0,1-0.6,2-1.5,2.5
			l-10.4,5.2c-2.4,1.2-3.8,3.2-3.8,5.2v11.7c0,8.2-4.9,16-13,20.8C134.4,91.5,134,91.6,133.5,91.6z"/>
		<path class="st0" d="M117.2,40.8c-0.1,0-0.3,0-0.4,0c0.3-1.6,0.4-3.3,0.4-5c0-17.6-14.3-31.9-31.9-31.9
			C70.6,3.9,58.1,14,54.5,27.6c-1.2-0.2-2.5-0.3-3.8-0.3C37.6,27.3,27,37.9,27,51c0,13.1,10.6,23.7,23.7,23.7c6.8,0,13-2.9,17.3-7.5
			c4.3,4.6,10.5,7.5,17.3,7.5c7,0,13.3-3,17.6-7.8c3,4.7,8.3,7.8,14.3,7.8c9.4,0,17-7.6,17-17C134.2,48.4,126.6,40.8,117.2,40.8z
			 M95,20.3l-18.4,41c-0.5,1.2-1.9,1.7-3.1,1.2l-2-0.9c-1.2-0.5-1.7-1.9-1.2-3.1l18.4-41c0.5-1.2,1.9-1.7,3.1-1.2l2,0.9
			C95,17.7,95.5,19.1,95,20.3z"/>
	</g>
</g>
</svg>
